<svg width="1608.9875px" height="336.8px" xmlns="http://www.w3.org/2000/svg" viewBox="-554.49375 -93.4 1608.9875 336.8" style="background: rgb(33, 37, 41);" preserveAspectRatio="xMidYMid"><defs><filter id="editing-hover" x="-100%" y="-100%" width="300%" height="300%"><feFlood flood-color="#052b4a" result="flood"></feFlood><feComposite operator="in" in2="SourceAlpha" in="flood" result="shadow"></feComposite><feOffset dx="-4" dy="0.1" in="SourceGraphic" result="offset-1"></feOffset><feOffset dx="4" dy="-0.1" in="shadow" result="offset-2"></feOffset><feMerge><feMergeNode in="offset-2"></feMergeNode><feMergeNode in="offset-1"></feMergeNode></feMerge></filter></defs><g filter="url(#editing-hover)"><g transform="translate(-333.80003666877747, 150)"><path d="M94.40-106L94.40-106L94.40-106Q78.20-106 66.40-111.40L66.40-111.40L60-79L98.60-79L98.60-79Q98.60-68.40 93.30-61.70L93.30-61.70L93.30-61.70Q88-55 78.40-55L78.40-55L78.40-55Q68-55 58.40-58.80L58.40-58.80L58.40-58.80Q56.40-59.60 56.20-59.80L56.20-59.80L44.80 0L1.20 0L26.60-132L115.80-132L115.80-132Q115.80-119.80 110.10-112.90L110.10-112.90L110.10-112.90Q104.40-106 94.40-106ZM158.80-11L158.80-11L158.80-11Q152.60 4 132.80 4L132.80 4L132.80 4Q122.60 4 116.20-3L116.20-3L116.20-3Q110.80-9.20 110.80-15.40L110.80-15.40L110.80-15.40Q110.80-31.60 118.20-63.20L118.20-63.20L125.60-102L166.20-106L154-42.80L154-42.80Q150.60-28 150.60-22.80L150.60-22.80L150.60-22.80Q150.60-11.40 158.80-11ZM129.20-129.80L129.20-129.80L129.20-129.80Q129.20-137.60 135.70-141.80L135.70-141.80L135.70-141.80Q142.20-146 151.60-146L151.60-146L151.60-146Q161-146 166.70-141.80L166.70-141.80L166.70-141.80Q172.40-137.60 172.40-129.80L172.40-129.80L172.40-129.80Q172.40-122 166.10-118L166.10-118L166.10-118Q159.80-114 150.40-114L150.40-114L150.40-114Q141-114 135.10-118L135.10-118L135.10-118Q129.20-122 129.20-129.80ZM223.60-11L223.60-11L223.60-11Q217.40 4 197.60 4L197.60 4L197.60 4Q187.60 4 181.20-3L181.20-3L181.20-3Q176-8.80 176-15.40L176-15.40L176-15.40Q176-30.40 183-63.20L183-63.20L197.60-140L238.20-144L218.80-42.80L218.80-42.80Q215.40-28 215.40-22.80L215.40-22.80L215.40-22.80Q215.40-11.40 223.60-11ZM384.60 4L384.60 4L384.60 4Q360.40 4 360.40-14.80L360.40-14.80L360.40-14.80Q360.40-23 363.90-38.90L363.90-38.90L363.90-38.90Q367.40-54.80 368.60-61.20L368.60-61.20L368.60-61.20Q371.40-75.80 371.40-80.40L371.40-80.40L371.40-80.40Q371.40-90.60 363.80-90.60L363.80-90.60L363.80-90.60Q358.80-90.60 354-83.70L354-83.70L354-83.70Q349.20-76.80 347-63L347-63L334.60 0L295.60 4L306.40-50.40L306.40-50.40Q308.20-59.40 309.80-69.60L309.80-69.60L309.80-69.60Q311.40-79.80 311.40-81.40L311.40-81.40L311.40-81.40Q311.40-90.60 304.60-90.60L304.60-90.60L304.60-90.60Q300-90.60 295-83.80L295-83.80L295-83.80Q290-77 287.20-63L287.20-63L275 0L235.60 4L256.60-102L289.20-106L285.80-85.80L285.80-85.80Q291-96.60 300.60-101.30L300.60-101.30L300.60-101.30Q310.20-106 325.20-106L325.20-106L325.20-106Q333.80-106 339.40-101.80L339.40-101.80L339.40-101.80Q345-97.60 346.80-90.80L346.80-90.80L346.80-90.80Q350.20-97.80 358.90-101.90L358.90-101.90L358.90-101.90Q367.60-106 378.30-106L378.30-106L378.30-106Q389-106 394.30-103.70L394.30-103.70L394.30-103.70Q399.60-101.40 402.80-97.60L402.80-97.60L402.80-97.60Q408.20-90.60 408.20-77.80L408.20-77.80L408.20-77.80Q408.20-65.20 402.80-39L402.80-39L402.80-39Q400-26.20 400-21.50L400-21.50L400-21.50Q400-16.80 402.70-14L402.70-14L402.70-14Q405.40-11.20 409.40-10.80L409.40-10.80L409.40-10.80Q407.40-4 400.50 0L400.50 0L400.50 0Q393.60 4 384.60 4ZM507 0L464.20 0L488.60-131.40L488.60-131.40Q508.40-133.60 537.30-133.60L537.30-133.60L537.30-133.60Q566.20-133.60 579.60-125.20L579.60-125.20L579.60-125.20Q593-116.80 593-99.90L593-99.90L593-99.90Q593-83 584.30-72.40L584.30-72.40L584.30-72.40Q575.60-61.80 560.60-58.40L560.60-58.40L560.60-58.40Q564-41.80 571.80-28.40L571.80-28.40L571.80-28.40Q579-15.80 587.40-11.80L587.40-11.80L587.40-11.80Q584.40-3.40 578.30 0.30L578.30 0.30L578.30 0.30Q572.20 4 563.50 4L563.50 4L563.50 4Q554.80 4 548-1.10L548-1.10L548-1.10Q541.20-6.20 535.80-15.60L535.80-15.60L535.80-15.60Q524.40-36 523.20-68.20L523.20-68.20L524.60-68.20L524.60-68.20Q539.40-68.60 546.80-76.30L546.80-76.30L546.80-76.30Q554.20-84 554.20-100.20L554.20-100.20L554.20-100.20Q554.20-120.40 537.20-121.20L537.20-121.20L532.80-121.20L532.80-121.20Q531-121.20 530-121L530-121L507 0ZM683.20-33.80L683.20-33.80L683.20-33.80Q688.20-30.40 688.20-22.90L688.20-22.90L688.20-22.90Q688.20-15.40 684.40-10.60L684.40-10.60L684.40-10.60Q680.60-5.80 674.40-2.60L674.40-2.60L674.40-2.60Q661.60 4 647.80 4L647.80 4L647.80 4Q634 4 625.90 1L625.90 1L625.90 1Q617.80-2 612.40-7.60L612.40-7.60L612.40-7.60Q601.80-18.20 601.80-37.60L601.80-37.60L601.80-37.60Q601.80-67.80 618.20-86.20L618.20-86.20L618.20-86.20Q635.80-106 666.40-106L666.40-106L666.40-106Q685.40-106 694.80-98L694.80-98L694.80-98Q701.80-92 701.80-82.20L701.80-82.20L701.80-82.20Q701.80-47 641-47L641-47L641-47Q640.20-41.80 640.20-37.40L640.20-37.40L640.20-37.40Q640.20-28.20 644.30-24.70L644.30-24.70L644.30-24.70Q648.40-21.20 656-21.20L656-21.20L656-21.20Q663.60-21.20 671.70-24.70L671.70-24.70L671.70-24.70Q679.80-28.20 683.20-33.80ZM642.40-55.60L642.40-55.60L642.40-55.60Q656.60-55.60 664.80-64.40L664.80-64.40L664.80-64.40Q673-72.80 673-86.20L673-86.20L673-86.20Q673-90.80 671.30-93.30L671.30-93.30L671.30-93.30Q669.60-95.80 666.20-95.80L666.20-95.80L666.20-95.80Q662.80-95.80 659.90-94.50L659.90-94.50L659.90-94.50Q657-93.20 654-88.80L654-88.80L654-88.80Q646.60-78.80 642.40-55.60ZM781.20-98.60L781.20-98.60L781.20-98.60Q787.80-106 799.20-106L799.20-106L799.20-106Q806.20-106 811.60-102.20L811.60-102.20L811.60-102.20Q817-98.40 817-91.30L817-91.30L817-91.30Q817-84.20 814.80-76.60L814.80-76.60L814.80-76.60Q812.60-69 809.20-61.20L809.20-61.20L809.20-61.20Q802.40-46 793-33.40L793-33.40L793-33.40Q779.80-15.20 767.10-5.60L767.10-5.60L767.10-5.60Q754.40 4 740.60 4L740.60 4L740.60 4Q729.40 4 722.60 1.40L722.60 1.40L722.60 1.40Q721.40-40.60 719.90-55.60L719.90-55.60L719.90-55.60Q718.40-70.60 717.20-78.80L717.20-78.80L717.20-78.80Q715.20-94.80 709.20-98.60L709.20-98.60L709.20-98.60Q713.80-102.60 718.30-104.30L718.30-104.30L718.30-104.30Q722.80-106 732.10-106L732.10-106L732.10-106Q741.40-106 748.00-98.70L748.00-98.70L748.00-98.70Q754.60-91.40 755.90-78.50L755.90-78.50L755.90-78.50Q757.20-65.60 757.20-50L757.20-50L757.20-50Q757.20-34.40 756.00-15.60L756.00-15.60L756.00-15.60Q762.20-20 768.80-33.40L768.80-33.40L768.80-33.40Q777.80-52 781.00-74.40L781.00-74.40L781.00-74.40Q782-81.20 782-88.40L782-88.40L782-88.40Q782-95.60 781.20-98.60ZM870.40-11L870.40-11L870.40-11Q864.20 4 844.40 4L844.40 4L844.40 4Q834.20 4 827.80-3L827.80-3L827.80-3Q822.40-9.20 822.40-15.40L822.40-15.40L822.40-15.40Q822.40-31.60 829.80-63.20L829.80-63.20L837.20-102L877.80-106L865.60-42.80L865.60-42.80Q862.20-28 862.20-22.80L862.20-22.80L862.20-22.80Q862.20-11.40 870.40-11ZM840.80-129.80L840.80-129.80L840.80-129.80Q840.80-137.60 847.30-141.80L847.30-141.80L847.30-141.80Q853.80-146 863.20-146L863.20-146L863.20-146Q872.60-146 878.30-141.80L878.30-141.80L878.30-141.80Q884-137.60 884-129.80L884-129.80L884-129.80Q884-122 877.70-118L877.70-118L877.70-118Q871.40-114 862-114L862-114L862-114Q852.60-114 846.70-118L846.70-118L846.70-118Q840.80-122 840.80-129.80ZM968.40-33.80L968.40-33.80L968.40-33.80Q973.40-30.40 973.40-22.90L973.40-22.90L973.40-22.90Q973.40-15.40 969.60-10.60L969.60-10.60L969.60-10.60Q965.80-5.80 959.60-2.60L959.60-2.60L959.60-2.60Q946.80 4 933 4L933 4L933 4Q919.20 4 911.10 1L911.10 1L911.10 1Q903-2 897.60-7.60L897.60-7.60L897.60-7.60Q887-18.20 887-37.60L887-37.60L887-37.60Q887-67.80 903.40-86.20L903.40-86.20L903.40-86.20Q921-106 951.60-106L951.60-106L951.60-106Q970.60-106 980-98L980-98L980-98Q987-92 987-82.20L987-82.20L987-82.20Q987-47 926.20-47L926.20-47L926.20-47Q925.40-41.80 925.40-37.40L925.40-37.40L925.40-37.40Q925.40-28.20 929.50-24.70L929.50-24.70L929.50-24.70Q933.60-21.20 941.20-21.20L941.20-21.20L941.20-21.20Q948.80-21.20 956.90-24.70L956.90-24.70L956.90-24.70Q965-28.20 968.40-33.80ZM927.60-55.60L927.60-55.60L927.60-55.60Q941.80-55.60 950-64.40L950-64.40L950-64.40Q958.20-72.80 958.20-86.20L958.20-86.20L958.20-86.20Q958.20-90.80 956.50-93.30L956.50-93.30L956.50-93.30Q954.80-95.80 951.40-95.80L951.40-95.80L951.40-95.80Q948-95.80 945.10-94.50L945.10-94.50L945.10-94.50Q942.20-93.20 939.20-88.80L939.20-88.80L939.20-88.80Q931.80-78.80 927.60-55.60ZM1143-33.40L1143-33.40Q1129.80-15.20 1117.10-5.60L1117.10-5.60L1117.10-5.60Q1104.40 4 1091.30 4L1091.30 4L1091.30 4Q1078.20 4 1073.60 1.40L1073.60 1.40L1073.60-42.60L1073.60-42.60Q1062.20-12.20 1041.80-0.40L1041.80-0.40L1041.80-0.40Q1034.40 4 1027.40 4L1027.40 4L1027.40 4Q1014 4 1008.20 1.40L1008.20 1.40L1008.20 1.40Q1006.80-44.40 1005.60-57.10L1005.60-57.10L1005.60-57.10Q1004.40-69.80 1003.40-77.60L1003.40-77.60L1003.40-77.60Q1001.40-93.20 994.60-99.60L994.60-99.60L994.60-99.60Q1003.20-106 1015.20-106L1015.20-106L1015.20-106Q1038.40-106 1041.60-77.20L1041.60-77.20L1041.60-77.20Q1042.40-70.40 1042.40-63.20L1042.40-63.20L1042.40-63.20Q1042.40-52.40 1040-14.80L1040-14.80L1040-14.80Q1044.80-17 1049.90-24.90L1049.90-24.90L1049.90-24.90Q1055-32.80 1059.20-43.60L1059.20-43.60L1059.20-43.60Q1068.60-68.60 1068.60-90.20L1068.60-90.20L1068.60-90.20Q1068.60-93.60 1067.70-97.20L1067.70-97.20L1067.70-97.20Q1066.80-100.80 1065.80-101.80L1065.80-101.80L1065.80-101.80Q1072.80-106 1083.50-106L1083.50-106L1083.50-106Q1094.20-106 1099.30-98.70L1099.30-98.70L1099.30-98.70Q1104.40-91.40 1105.80-78L1105.80-78L1105.80-78Q1107.40-61 1107.40-50.80L1107.40-50.80L1107.40-50.80Q1107.40-36.60 1106-15.60L1106-15.60L1106-15.60Q1116-22.80 1124.20-46.40L1124.20-46.40L1124.20-46.40Q1132.40-70 1132.40-86.80L1132.40-86.80L1132.40-86.80Q1132.40-94.20 1131.20-98.60L1131.20-98.60L1131.20-98.60Q1137.80-106 1149.20-106L1149.20-106L1149.20-106Q1156.20-106 1161.30-102.20L1161.30-102.20L1161.30-102.20Q1166.40-98.40 1166.40-91.30L1166.40-91.30L1166.40-91.30Q1166.40-84.20 1164.30-76.60L1164.30-76.60L1164.30-76.60Q1162.20-69 1158.80-61.20L1158.80-61.20L1158.80-61.20Q1152.20-45.60 1143-33.40L1143-33.40Z" fill="#ffd5af"></path></g></g><style>text {
  font-size: 64px;
  font-family: Arial Black;
  dominant-baseline: central;
  text-anchor: middle;
}</style></svg>